# xmcd CD database file
#
# Track frame offsets:
#	180
#	22258
#	40665
#	68050
#	93670
#	117976
#	148207
#	170969
#	194557
#	221118
#	244527
#	264022
#	283294
#
# Disc length: 4062 seconds
#
# Revision: 0
# Processed by: cddbd v1.5PL3 Copyright (c) Steve Scherf et al.
# Submitted via: CDex 1.51
#
DISCID=d00fdc0d
DTITLE=The Alligators - Take the Bait
DYEAR=1999
DGENRE=Blues
TTITLE0=The Wrong Foot In
TTITLE1=Ain't Your Fool
TTITLE2=In Way Over My Head
TTITLE3=Yo Yo String
TTITLE4=What's the Buzz
TTITLE5=Six Foot Blues
TTITLE6=Boppin' At the Dog
TTITLE7=Don't Think I Will
TTITLE8=Whiskey Headed Woman
TTITLE9=Dark Dark Side
TTITLE10=Shake 'em On Down
TTITLE11=She Treats Me Bad
TTITLE12=Do The Do
EXTD=YEAR: 1999
EXTT0=
EXTT1=
EXTT2=
EXTT3=
EXTT4=
EXTT5=
EXTT6=
EXTT7=
EXTT8=
EXTT9=
EXTT10=
EXTT11=
EXTT12=
PLAYORDER=
